<svg width="500" height="500" fill="none" xmlns="http://www.w3.org/2000/svg"><path d="M186.29 247.294c10.043 5.853 21.525 10.055 32.522 13.724a.554.554 0 0 1 .282.211.578.578 0 0 1 .103.34c-.012.287-.208.489-.587.605-54.065 16.89-93.418 65.367-94.95 122.918a31.033 31.033 0 0 0 .037 2.89c.036.544.198.584.486.119 1.981-3.217 3.28-5.205 3.898-5.963 5.123-6.27 11.681-10.11 19.672-11.523" stroke="#79716C" stroke-width="2"/><path d="M147.753 370.615c16.756-2.532 32.108 2.385 44.939 12.871 16.826 13.737 26.48 31.486 28.963 53.248" stroke="#808282" stroke-width="2"/><path d="M221.655 436.734a70.354 70.354 0 0 1-1.238 21.862.614.614 0 0 0 .094.479.628.628 0 0 0 .41.264c18.342 3.101 36.694 3.138 55.055.111a.557.557 0 0 0 .2-.078.518.518 0 0 0 .153-.149.517.517 0 0 0 .078-.407c-1.522-7.217-1.804-14.795-.844-22.733" stroke="#79716C" stroke-width="2"/><path d="M275.563 436.083c2.972-23.138 13.788-41.603 32.448-55.395 12.387-9.15 26.52-12.56 42.399-10.229" stroke="#808282" stroke-width="2"/><path d="M350.41 370.459c10.119 2.679 17.556 8.437 22.313 17.275a.572.572 0 0 0 .629.274.573.573 0 0 0 .307-.192.574.574 0 0 0 .128-.339c.56-56.972-40.427-108.027-93.464-124.55-1.963-.612-1.999-1.322-.11-2.129l27.413-11.66" stroke="#79716C" stroke-width="2"/><path d="M307.626 249.138c28.412-12.349 50.799-35.936 56.165-66.918 5.31-30.651-8.86-61.862-41.739-67.734-18.452-3.293-37.932 3.12-50.377 17.496-10.043 11.596-15.069 25.046-18.205 39.89a.757.757 0 0 1-.257.423.715.715 0 0 1-.459.164l-7.759.018a.63.63 0 0 1-.614-.486 219.781 219.781 0 0 0-5.145-17.404c-5.402-15.835-19.021-31.137-34.897-37.312-19.039-7.413-43.013-3.642-57.201 12.147-12.445 13.835-16.343 33.339-13.371 51.532 4.851 29.725 25.688 53.578 52.523 66.34" stroke="#808282" stroke-width="2"/><path d="M307.626 249.138c-1.828-1.315-4.005-1.863-6.53-1.643-3.265.288-4.928.432-4.989.432-33.549-.037-67.094.061-100.636.293-3.054.028-6.145-.541-9.181-.926m164.12 123.165c-2.159-15.786-7.206-29.694-15.142-41.725-15.683-23.752-42.976-45.229-71.948-50.725-45.16-8.559-88.824 23.872-107.597 62.973-4.855 10.104-7.512 19.981-7.97 29.633m127.81 65.468c-15.817 3.785-31.503 4.29-47.057 1.513a44.594 44.594 0 0 1-4.155-.935c-.385-.111-.816-.004-1.293.321-.294.208-.532.302-.715.284-.312-.031-.542-.208-.688-.532" stroke="#F8EEE9" stroke-width="2"/><path d="M305.37 427.67c-3.201 6.679-6.301 17.724-4.201 24.183 4.338 13.386 21.553 9.431 30.357 3.789 10.969-7.037 21.314-17.825 26.019-30.165 3.054-8.027 3.045-18.954-3.504-25.174-5.209-4.964-13.967-4.459-20.24-1.826-12.648 5.294-22.58 16.973-28.431 29.193zm-153.921-30.844c-10.29 1.275-14.72 10.624-13.408 19.917 1.935 13.707 10.537 25.743 21.213 34.156 7.731 6.101 17.416 11.395 27.018 9.679 14.619-2.615 10.098-21.661 6.411-30.459-6.191-14.78-23.231-35.523-41.234-33.293zm50.662-215.441a15.038 15.038 0 0 0-15.032-15.036 15.038 15.038 0 0 0 0 30.073c3.987 0 7.81-1.584 10.629-4.404a15.04 15.04 0 0 0 4.403-10.633zm123.261.046c0-3.973-1.578-7.784-4.386-10.593a14.973 14.973 0 0 0-21.18 0 14.981 14.981 0 0 0 10.59 25.575 14.977 14.977 0 0 0 14.976-14.982zm-60.86 3.817c-11.152-5.266-21.534-5.303-32.512.348-7.264 3.734-22.873 12.991-12.959 23.156 3.033 3.113 9.611 8.542 19.736 16.285 5.751 4.403 11.079 6.596 17.059 1.88 9.514-7.498 16.511-13.11 20.993-16.834 12.94-10.771-4.118-20.945-12.317-24.835z" stroke="#808282" stroke-width="2"/><path d="m250.654 208.202 7.585-5.349a1.197 1.197 0 0 0 .109-1.855 1.173 1.173 0 0 0-.632-.292 72.97 72.97 0 0 0-18.618-.165 1.084 1.084 0 0 0-.678.367c-.52.594-.398 1.135.367 1.624a467.836 467.836 0 0 0 9.207 5.762c.905.55 1.792.519 2.66-.092z" stroke="#808282" stroke-width="2"/><path d="M96.018 387.532c-.08-.807-.327-.865-.743-.174-5.934 9.789-15.509 19.954-27.064 21.991-11.63 2.045-23.066-4.872-24.12-17.386a54.3 54.3 0 0 1 .403-12.596c2.375-16.055 6.493-31.468 12.574-46.67 11.83-29.578 27.877-56.74 48.139-81.486a474.075 474.075 0 0 1 19.15-21.972c.226-.239.254-.499.083-.78-4.173-6.835-8.245-14.165-11.033-21.441-20.214-52.926 4.145-110.137 49.148-141.027 21.443-14.716 45.245-23.34 71.407-25.872.936-.091 1.034-.422.294-.99-8.263-6.367-17.104-16.918-10.96-28.019 3.229-5.835 10.492-7.77 15.72-3.624.789.624 2.241 2.42 4.356 5.386 10.41 14.605 27.349 20.789 43.022 27.807 2.192.982 3.825 3.018 5.907 4.303 1.033.642 2.406 1.244 4.118 1.807 34.575 11.407 61.111 32.691 79.606 63.853 19.856 33.459 20.699 74.092 2.751 108.312-.886 1.694-2.711 4.728-5.475 9.101-.171.269-.15.526.064.771 7.753 8.752 13.837 15.841 18.251 21.266 28.88 35.486 50.79 77.192 60.319 122.394 2.761 13.101 4.311 30.275-11.675 35.899-16.205 5.698-30.265-7.926-37.914-20.376-.562-.923-.868-.844-.917.239-.746 17.994-6.221 34.348-16.425 49.064a.754.754 0 0 0 .513 1.174c6.246.899 55.294 8.404 45.086 22.881-1.798 2.544-4.213 4.505-7.245 5.881-13.014 5.917-24.148 8.128-39.776 10.587-23.136 3.651-45.263 6.165-66.381 7.541a1030.497 1030.497 0 0 1-181.6-4.165 347.182 347.182 0 0 1-44.444-7.899c-7.328-1.807-16.792-4.532-22.433-9.771-5.805-5.385-2.2-11.036 3.476-14.119a52.693 52.693 0 0 1 12.308-4.807 486.33 486.33 0 0 1 28.119-6.248.516.516 0 0 0 .383-.315.515.515 0 0 0-.062-.492c-9.33-12.955-14.766-27.468-16.306-43.542-.22-2.324-.428-4.486-.624-6.486zm90.272-140.238c10.043 5.853 21.525 10.055 32.522 13.724a.554.554 0 0 1 .282.211.578.578 0 0 1 .103.34c-.012.287-.208.489-.587.605-54.065 16.89-93.418 65.367-94.95 122.918a31.033 31.033 0 0 0 .037 2.89c.036.544.198.584.486.119 1.981-3.217 3.28-5.205 3.898-5.963 5.123-6.27 11.681-10.11 19.672-11.523 16.756-2.532 32.108 2.385 44.939 12.871 16.826 13.737 26.48 31.486 28.963 53.248a70.354 70.354 0 0 1-1.238 21.862.614.614 0 0 0 .094.479.628.628 0 0 0 .41.264c18.342 3.101 36.694 3.138 55.055.111a.557.557 0 0 0 .2-.078.518.518 0 0 0 .153-.149.517.517 0 0 0 .078-.407c-1.522-7.217-1.804-14.795-.844-22.733 2.972-23.138 13.788-41.603 32.448-55.395 12.387-9.15 26.52-12.56 42.399-10.229 10.119 2.679 17.556 8.437 22.313 17.275a.572.572 0 0 0 .629.274.573.573 0 0 0 .307-.192.574.574 0 0 0 .128-.339c.56-56.972-40.427-108.027-93.464-124.55-1.963-.612-1.999-1.322-.11-2.129l27.413-11.66c28.412-12.349 50.799-35.936 56.164-66.918 5.311-30.651-8.859-61.862-41.738-67.734-18.452-3.293-37.932 3.12-50.377 17.496-10.043 11.596-15.069 25.046-18.205 39.89a.757.757 0 0 1-.257.423.715.715 0 0 1-.459.164l-7.759.018a.63.63 0 0 1-.614-.486 220.204 220.204 0 0 0-5.145-17.404c-5.402-15.835-19.021-31.137-34.897-37.312-19.039-7.413-43.013-3.642-57.201 12.147-12.445 13.835-16.343 33.339-13.371 51.532 4.851 29.725 25.688 53.578 52.523 66.34zM305.37 427.67c-3.201 6.679-6.301 17.724-4.201 24.183 4.338 13.386 21.553 9.431 30.357 3.789 10.969-7.037 21.314-17.826 26.019-30.165 3.054-8.027 3.045-18.954-3.504-25.174-5.209-4.964-13.967-4.459-20.24-1.826-12.648 5.294-22.58 16.973-28.431 29.193zm-153.921-30.844c-10.29 1.275-14.72 10.624-13.408 19.917 1.935 13.707 10.537 25.743 21.213 34.156 7.731 6.101 17.416 11.395 27.018 9.679 14.619-2.615 10.098-21.661 6.411-30.459-6.191-14.78-23.231-35.523-41.234-33.293z" fill="#010405"/><path d="M307.626 249.138c-1.828-1.315-4.005-1.863-6.53-1.643-3.265.288-4.928.432-4.989.432-33.549-.037-67.094.061-100.636.293-3.054.028-6.145-.541-9.181-.926-26.835-12.762-47.672-36.615-52.523-66.34-2.972-18.193.926-37.697 13.371-51.532 14.188-15.789 38.162-19.56 57.201-12.147 15.876 6.175 29.495 21.477 34.897 37.312a220.204 220.204 0 0 1 5.145 17.404.63.63 0 0 0 .614.486l7.759-.018a.715.715 0 0 0 .459-.164.757.757 0 0 0 .257-.423c3.136-14.844 8.162-28.294 18.205-39.89 12.445-14.376 31.925-20.789 50.377-17.496 32.879 5.872 47.049 37.083 41.739 67.734-5.366 30.982-27.753 54.569-56.165 66.918zm-105.515-67.753a15.038 15.038 0 0 0-15.032-15.036 15.038 15.038 0 0 0 0 30.073c3.987 0 7.81-1.584 10.629-4.404a15.04 15.04 0 0 0 4.403-10.633zm123.261.046c0-3.973-1.578-7.784-4.386-10.593a14.973 14.973 0 0 0-21.18 0 14.981 14.981 0 0 0 10.59 25.575 14.977 14.977 0 0 0 14.976-14.982zm-60.86 3.817c-11.152-5.266-21.534-5.303-32.512.348-7.264 3.734-22.873 12.991-12.959 23.156 3.033 3.113 9.611 8.542 19.736 16.285 5.751 4.403 11.079 6.596 17.059 1.88 9.514-7.498 16.511-13.11 20.993-16.834 12.94-10.771-4.118-20.945-12.317-24.835z" fill="#fff"/><path d="M187.079 196.422c8.302 0 15.032-6.732 15.032-15.037 0-8.304-6.73-15.036-15.032-15.036s-15.032 6.732-15.032 15.036c0 8.305 6.73 15.037 15.032 15.037zM310.396 196.413c8.271 0 14.976-6.708 14.976-14.982s-6.705-14.981-14.976-14.981c-8.272 0-14.977 6.707-14.977 14.981 0 8.274 6.705 14.982 14.977 14.982zM264.512 185.248c8.199 3.89 25.257 14.064 12.317 24.835-4.482 3.724-11.479 9.336-20.993 16.834-5.98 4.716-11.308 2.523-17.059-1.88-10.125-7.743-16.703-13.172-19.736-16.285-9.914-10.165 5.695-19.422 12.959-23.156 10.978-5.651 21.36-5.614 32.512-.348zm-13.858 22.954 7.585-5.349a1.197 1.197 0 0 0 .109-1.855 1.173 1.173 0 0 0-.632-.292 72.97 72.97 0 0 0-18.618-.165 1.084 1.084 0 0 0-.678.367c-.52.594-.398 1.135.367 1.624a467.836 467.836 0 0 0 9.207 5.762c.905.55 1.792.519 2.66-.092z" fill="#010405"/><path d="M250.654 208.202c-.868.611-1.755.642-2.66.092a467.836 467.836 0 0 1-9.207-5.762c-.765-.489-.887-1.03-.367-1.624.171-.2.413-.331.678-.367a72.97 72.97 0 0 1 18.618.165 1.18 1.18 0 0 1 .948 1.59 1.197 1.197 0 0 1-.425.557l-7.585 5.349z" fill="#fff"/><path d="M186.29 247.294c3.036.385 6.127.954 9.181.926 33.542-.232 67.087-.33 100.636-.293.061 0 4.356-.221 4.989-.432 3.494.211 4.702.328 6.53 1.643l-27.413 11.66c-1.889.807-1.853 1.517.11 2.129 53.037 16.523 94.024 67.578 93.464 124.55a.574.574 0 0 1-.128.339.573.573 0 0 1-.667.161.572.572 0 0 1-.269-.243c-4.757-8.838-12.194-14.596-22.313-17.275-2.159-15.786-7.206-29.694-15.142-41.725-15.683-23.752-42.976-45.229-71.948-50.725-45.16-8.559-88.824 23.872-107.597 62.973-4.855 10.104-7.512 19.981-7.97 29.633-7.991 1.413-14.549 5.253-19.672 11.523-.618.758-1.917 2.746-3.898 5.963-.288.465-.45.425-.486-.119a31.033 31.033 0 0 1-.037-2.89c1.532-57.551 40.885-106.028 94.95-122.918.379-.116.575-.318.587-.605a.578.578 0 0 0-.103-.34.554.554 0 0 0-.282-.211c-10.997-3.669-22.479-7.871-32.522-13.724z" fill="#D7D7D7"/><path d="M350.41 370.459c-15.879-2.331-30.012 1.079-42.399 10.229-18.66 13.792-29.476 32.257-32.448 55.395-15.817 3.785-31.503 4.29-47.057 1.513a44.594 44.594 0 0 1-4.155-.935c-.385-.111-.816-.004-1.293.321-.294.208-.532.302-.715.284-.312-.031-.542-.208-.688-.532-2.483-21.762-12.137-39.511-28.963-53.248-12.831-10.486-28.183-15.403-44.939-12.871.458-9.652 3.115-19.529 7.97-29.633 18.773-39.101 62.437-71.532 107.597-62.973 28.972 5.496 56.265 26.973 71.948 50.725 7.936 12.031 12.983 25.939 15.142 41.725zm-45.04 57.211c5.851-12.22 15.783-23.899 28.431-29.193 6.273-2.633 15.031-3.138 20.24 1.826 6.549 6.22 6.558 17.147 3.504 25.174-4.705 12.34-15.05 23.129-26.019 30.165-8.804 5.642-26.019 9.597-30.357-3.789-2.1-6.459 1-17.504 4.201-24.183zm-167.329-10.927c-1.312-9.293 3.118-18.642 13.408-19.917 18.003-2.23 35.043 18.513 41.234 33.293 3.687 8.798 8.208 27.844-6.411 30.459-9.602 1.716-19.287-3.578-27.018-9.679-10.676-8.413-19.278-20.449-21.213-34.156z" fill="#fff"/><path d="M275.563 436.083c-.96 7.938-.678 15.516.844 22.733a.522.522 0 0 1-.431.634c-18.361 3.027-36.713 2.99-55.055-.111a.62.62 0 0 1-.504-.743 70.354 70.354 0 0 0 1.238-21.862c.146.324.376.501.688.532.183.018.421-.076.715-.284.477-.325.908-.432 1.293-.321 1.376.379 2.761.691 4.155.935 15.554 2.777 31.24 2.272 47.057-1.513z" fill="#D7D7D7" fill-opacity=".827"/></svg>